<?xml version="1.0" encoding="UTF-8" standalone="no"?>
<svg
   version="1.1"
   height="48"
   viewBox="0 -960 1920 1920"
   width="48"
   fill="#e3e3e3"
   id="svg3293"
   sodipodi:docname="favicon_dark.svg"
   inkscape:version="1.1.2 (0a00cf5339, 2022-02-04)"
   xmlns:inkscape="http://www.inkscape.org/namespaces/inkscape"
   xmlns:sodipodi="http://sodipodi.sourceforge.net/DTD/sodipodi-0.dtd"
   xmlns="http://www.w3.org/2000/svg"
   xmlns:svg="http://www.w3.org/2000/svg"
   xmlns:rdf="http://www.w3.org/1999/02/22-rdf-syntax-ns#"
   xmlns:dc="http://purl.org/dc/elements/1.1/">
  <metadata
     id="metadata70">
    <rdf:RDF>
      <rdf:Description>
        <dc:creator>RealFaviconGenerator</dc:creator>
        <dc:source>https://realfavicongenerator.net</dc:source>
      </rdf:Description>
    </rdf:RDF>
  </metadata>
  <defs
     id="defs3297" />
  <sodipodi:namedview
     id="namedview3295"
     pagecolor="#ffffff"
     bordercolor="#666666"
     borderopacity="1.0"
     inkscape:pageshadow="2"
     inkscape:pageopacity="0.0"
     inkscape:pagecheckerboard="0"
     showgrid="false"
     inkscape:zoom="10.032077"
     inkscape:cx="24.571182"
     inkscape:cy="22.428056"
     inkscape:window-width="954"
     inkscape:window-height="1100"
     inkscape:window-x="47"
     inkscape:window-y="37"
     inkscape:window-maximized="0"
     inkscape:current-layer="svg3293" />
  <text
     xml:space="preserve"
     style="font-style:normal;font-weight:normal;font-size:1587.19px;line-height:1.25;font-family:sans-serif;fill:#029764;fill-opacity:1;stroke:none;stroke-width:74.3999"
     x="-26.349878"
     y="410.36041"
     id="text16862"
     transform="scale(0.9246654,1.0814723)"><tspan
       sodipodi:role="line"
       id="tspan16860"
       style="font-size:1587.19px;fill:#029764;fill-opacity:1;stroke-width:74.3999"
       x="-26.349878"
       y="410.36041">{</tspan></text>
  <text
     xml:space="preserve"
     style="font-style:normal;font-weight:normal;font-size:1588.48px;line-height:0;font-family:sans-serif;fill:#029764;fill-opacity:1;stroke:none;stroke-width:70.5274"
     x="1572.9042"
     y="410.69235"
     id="text26958"
     transform="scale(0.92541893,1.0805917)"><tspan
       sodipodi:role="line"
       id="tspan26956"
       style="font-size:1588.48px;fill:#029764;fill-opacity:1;stroke-width:70.5274"
       x="1572.9042"
       y="410.69235">}</tspan></text>
  <g
     style="fill:#d2d2db;fill-opacity:1"
     id="g59165"
     transform="matrix(1.5645855,0,0,1.5645855,210.01496,729.80341)">
    <path
       d="m 280,-160 v -441 q 0,-33 24,-56 24,-23 57,-23 h 439 q 33,0 56.5,23.5 23.5,23.5 23.5,56.5 v 320 L 680,-80 H 360 q -33,0 -56.5,-23.5 Q 280,-127 280,-160 Z M 81,-710 q -6,-33 13,-59.5 19,-26.5 52,-32.5 l 434,-77 q 33,-6 59.5,13 26.5,19 32.5,52 l 10,54 h -82 l -7,-40 -433,77 40,226 v 279 q -16,-9 -27.5,-24 -11.5,-15 -14.5,-34 z m 279,110 v 440 h 280 v -160 h 160 v -280 z m 220,220 z"
       id="path59156"
       style="fill:#d2d2db;fill-opacity:1" />
  </g>
  <rect
     style="fill:#d2d2d2;fill-opacity:1;stroke-width:0.2"
     id="rect59817"
     width="441.34363"
     height="103.57929"
     x="848.93176"
     y="-131.24451" />
  <rect
     style="fill:#d2d2d2;fill-opacity:1;stroke-width:0.15912"
     id="rect59817-3"
     width="279.36124"
     height="103.57929"
     x="848.93176"
     y="52.334785" />
  <style
     id="style82">@media (prefers-color-scheme: light) { :root { filter: none; } }
@media (prefers-color-scheme: dark) { :root { filter: none; } }
</style>
</svg>
